<?xml version="1.0" encoding="UTF-8"?>
<svg id="Layer_2" data-name="Layer 2" xmlns="http://www.w3.org/2000/svg" viewBox="0 0 72.81 72.18">
  <defs>
    <style>
      .cls-1 {
        stroke: #231f20;
        stroke-miterlimit: 10;
        stroke-width: .5px;
      }

      .cls-1, .cls-2 {
        fill: #231f20;
      }
    </style>
  </defs>
  <g id="Layer_1-2" data-name="Layer 1">
    <path class="cls-2" d="m.14.54c.81,1.69.68,3.67.78,5.5.14,2.39.21,4.79.24,7.18.07,4.91.06,9.82.02,14.72-.09,9.89-.36,19.77-.61,29.66-.11,4.35-.33,8.73-.34,13.08,0,1.33.64,1.39,1.83,1.34,1.87-.07,3.73-.1,5.61-.09l29.83.12c11.31.04,22.61.09,33.92.13.29,0,.82-.03,1.02-.27.14-.16.27-.36-.1-.36-19.59-.08-39.19-.15-58.78-.23l-7.09-.03c-.8,0-1.62-.04-2.42,0-.55.03-1.47.3-1.98.09-.62-.26-.4-1.28-.36-1.83.06-.84.09-1.67.1-2.51.03-2.37.08-4.75.14-7.12.23-9.72.52-19.43.65-29.15.07-5.42.09-10.84.04-16.26-.03-2.63-.07-5.27-.21-7.9-.11-2.09.09-4.53-.84-6.46C1.4-.23,0,.26.14.54H.14Z"/>
    <path class="cls-2" d="m72.81,71.54c0-18.49,0-36.97,0-55.46,0-5.22,0-10.44,0-15.67,0-.7-1.46-.44-1.46.14,0,18.49,0,36.97,0,55.46,0,5.22,0,10.44,0,15.67,0,.7,1.46.44,1.46-.14h0Z"/>
    <path class="cls-2" d="m.19.57c18.56,0,37.12,0,55.68,0h15.73c.29,0,1.63-.56.95-.56-18.56,0-37.12,0-55.68,0H1.14c-.29,0-1.63.56-.95.56H.19Z"/>
    <path class="cls-2" d="m71.95,63.01h-8.2c-.16,0-.39.03-.51.14-.08.08-.12.17.04.17h8.2c.16,0,.39-.03.51-.14.08-.08.12-.17-.04-.17h0Z"/>
    <path class="cls-2" d="m63.16,63.29c0,2.82,0,5.63,0,8.45,0,.13.72.02.72-.19,0-2.82,0-5.63,0-8.45,0-.13-.72-.02-.72.19h0Z"/>
    <path class="cls-2" d="m64.13,71.57c1.82-3.36,4.43-6.43,7.94-8.07.46-.21.04-.46-.29-.31-3.67,1.71-6.42,4.84-8.33,8.36-.17.3.56.23.68.02h0Z"/>
    <path class="cls-2" d="m66.29,70.62c1.04-1.88,2.5-3.5,4.24-4.75.12-.09-.16-.07-.23-.03-1.77,1.27-3.25,2.92-4.31,4.82-.03.06.24.04.29-.04h0Z"/>
    <path class="cls-2" d="m68.45,70.45c.36-.87.97-1.62,1.75-2.15.05-.03.07-.1.02-.14s-.15-.01-.21.02c-.82.55-1.46,1.33-1.84,2.24-.06.15.23.13.27.02h0Z"/>
    <ellipse class="cls-1" cx="36.89" cy="39.51" rx="3.34" ry="1.58"/>
    <path class="cls-2" d="m36.19,41.26c.27,1.36.18,2.79-.27,4.1-.27.78,1.18.74,1.38.15.52-1.5.64-3.08.34-4.64-.07-.34-.6-.36-.85-.29-.29.09-.67.32-.6.67h0Z"/>
    <path class="cls-2" d="m37.35,45.3c-1.01-.22-2,.12-2.89.59-.35.19-.69.41-1.05.59.07-.03-.15.07-.18.09-.09.04-.19.08-.28.12.13-.05-.14.04-.17.05-.09.02-.1.02-.03,0-.05,0-.1.01-.15.02-.27.03-.76.19-.82.51s.43.36.63.33c.88-.09,1.65-.49,2.41-.93.35-.2.56-.32.92-.47.09-.03.1-.04.04-.01.05-.02.1-.03.15-.04.03,0,.24-.05.11-.03.17-.02.23-.03.42.01.34.07.77-.03,1.02-.27.22-.21.16-.47-.14-.54h0Z"/>
    <path class="cls-2" d="m36.38,45.93c.08-.02.09-.02.02-.01.07,0,.09,0,.05,0,.07,0,.14,0,.21.02.15.03.3.07.44.13.34.14.64.33.95.52.62.39,1.22.73,1.95.8.33.03.75-.1,1.02-.27.06-.04.2-.12.17-.21s-.19-.09-.25-.1c-.7-.07-1.3-.58-1.88-.93-.75-.44-1.55-.67-2.42-.48-.19.04-.38.09-.55.17-.07.03-.27.12-.3.22-.08.24.5.15.58.13h0Z"/>
    <path class="cls-2" d="m40.33,47.44c1.91-.16,3.4-1.42,4.72-2.69.08-.08.18-.19.14-.31s-.18-.18-.28-.2c-.33-.06-.78.04-1.02.27-.28.27-.56.53-.84.78-.14.12-.28.25-.43.36-.08.06-.16.12-.23.18-.09.07.06-.04-.03.02-.04.03-.09.06-.13.09-.15.1-.31.2-.47.29-.04.02-.07.04-.11.06-.02.01-.16.07-.04.02-.08.04-.15.07-.23.11-.05.02-.1.04-.15.06-.02,0-.15.05-.05.02s-.04.01-.06.02c-.05.02-.1.03-.15.04-.04.01-.08.02-.12.03.07-.02.09-.01,0,0-.11.02-.21.03-.32.04-.27.02-.76.18-.82.49-.07.33.44.32.63.31h0Z"/>
    <path class="cls-2" d="m28.49,45.46c.37.62.82,1.21,1.44,1.61.79.5,1.69.58,2.6.38.16-.04.36-.12.49-.22.06-.05.19-.15.16-.25-.07-.25-.66-.1-.8-.07l.09-.02h-.05s-.04.01-.05.02c.08,0,.1-.01.05,0-.01,0-.12,0-.06,0s-.04,0-.06,0c-.18-.01-.23-.02-.38-.07-.29-.08-.56-.22-.81-.4-.49-.36-.86-.84-1.17-1.36-.24-.4-1.6.13-1.45.39h0Z"/>
    <path class="cls-2" d="m33.92,30.38c-.41-.25-.82-.52-1.28-.66-.57-.18-1.16-.17-1.74-.03-.67.17-1.29.51-1.86.89-.42.28-.8.6-1.22.87-.26.17-.36.55-.08.75.31.22.75.1,1.04-.09.37-.24.71-.52,1.07-.77.07-.05.15-.1.23-.15.03-.02.13-.08.05-.03.06-.04.12-.07.18-.1.14-.08.28-.15.42-.21.07-.03.13-.06.2-.09-.09.03.05-.02.08-.02.06-.02.12-.03.18-.05.06-.02.09-.02,0,0,.11-.02.21-.02.32-.03-.15,0-.01,0,.02,0,.05,0,.1.01.14.02.12.02-.05-.02.03,0,.04.01.09.03.13.04.09.03.18.07.26.11.04.02.07.03.01,0,.05.03.1.05.15.08.18.1.35.21.52.31.31.19.75.13,1.04-.09.23-.18.39-.55.08-.75h0Z"/>
    <path class="cls-2" d="m40.73,31.29c.44-.25.84-.55,1.27-.81.08-.05.16-.09.24-.14.04-.02.14-.05.09-.04-.11.02.12-.01.14-.01.12,0,.25,0,.37.02,1,.13,1.79.91,2.68,1.31.27.12.67,0,.93-.09.06-.02.65-.29.44-.39-.59-.27-1.11-.65-1.67-.96s-1.17-.46-1.81-.45c-.74.01-1.47.19-2.13.52-.58.29-1.09.69-1.65,1.01-.24.14-.18.28.08.29.34,0,.73-.11,1.02-.27h0Z"/>
    <path class="cls-2" d="m20.61,26.94c.32-.13.56-.38.58-.73,0-.07,0-.14,0-.22.01-.34.03-.69.05-1.03.06-1.34.14-2.68.21-4.02l-1.4.37c.95,1.34,2.51,2.22,4.12,2.51.35.06.77,0,1.02-.27.2-.21.17-.55-.16-.61-1.45-.26-2.78-1.01-3.64-2.22-.28-.39-1.37-.12-1.4.37-.07,1.26-.13,2.53-.19,3.79-.02.36-.03.72-.05,1.07,0,.12.03.41-.03.51l.22-.23.07-.04c-.23.1-.58.4-.36.67s.71.18.97.06h0Z"/>
    <path class="cls-2" d="m49.94,23.19c.9.24,1.87-.23,2.35-.99.23-.35.37-.76.54-1.15.2-.47.41-.93.61-1.4l-1.4.16c.28,2.44.98,4.81,2.06,7.01.15.3.55.28.83.21.18-.05.76-.31.62-.6-1.08-2.2-1.78-4.57-2.06-7.01-.03-.25-.47-.26-.64-.24-.25.03-.66.15-.77.4-.27.61-.53,1.23-.8,1.84-.1.24-.21.48-.35.71-.05.08-.11.14-.17.22-.11.07-.11.07-.01.02.1,0,.11,0,.06-.03-.33-.09-.78.03-1.02.27-.23.22-.15.48.15.57h0Z"/>
    <path class="cls-2" d="m19.62,30.63c-.59,1.33-1.61,2.4-3,2.9-.3.11-.94.56-.43.88,1.07.69,2.39.69,3.49.06l-.79-.71c-1.22,1.02-2.18,2.21-2.88,3.64-.2.41.29.61.62.58,1.08-.1,2.1-.37,3.09-.82l-.79-.71c-1.62,1.42-2.81,3.16-3.78,5.07s-2.19,4.04-1.93,6.18,2.25,3.14,4.12,3.64c2.2.59,4.5.5,6.74.27.79-.08,1.13-1.12.14-1.02-2.91.31-9.67.64-9.57-3.78.04-1.77,1.09-3.6,1.88-5.15.87-1.7,1.91-3.32,3.35-4.59.68-.59-.22-.97-.79-.71-.75.34-1.5.54-2.32.62l.62.58c.6-1.23,1.4-2.29,2.45-3.17.67-.56-.22-1.04-.79-.71-.61.34-1.16.3-1.74-.07l-.43.88c1.84-.66,3.32-1.9,4.12-3.71.33-.74-1.13-.7-1.38-.14h0Z"/>
    <path class="cls-2" d="m54.02,28.8c1.11,1.04,2.34,1.86,3.71,2.5l.62-.49c-.88.25-1.74.34-2.65.29-.15,0-1.47.28-1.15.56,1.21,1.06,2.48,2.06,3.79,3l.81-.53c-1.26.22-2.52.44-3.78.66-.16.03-1.04.24-.81.53,2.32,2.98,5.23,6.78,4.36,10.83-.46,2.14-2.55,3.02-4.42,3.72-2.01.75-4.1,1.11-6.24,1.17-.41.01-1.58.64-.62.61,2.32-.06,4.6-.47,6.79-1.22,1.8-.61,4.15-1.44,5.3-3.06,1.25-1.76.81-4.41.12-6.29-.86-2.34-2.42-4.32-3.93-6.27l-.81.53c1.26-.22,2.52-.44,3.78-.66.09-.02,1.11-.32.81-.53-1.31-.94-2.57-1.94-3.79-3l-1.15.56c1.27.07,2.49-.07,3.72-.42.02,0,.91-.36.62-.49-1.38-.64-2.6-1.47-3.71-2.5-.29-.27-1.61.27-1.36.5h0Z"/>
  </g>
</svg>