<?xml version="1.0" encoding="UTF-8"?>
<svg id="Layer_2" data-name="Layer 2" xmlns="http://www.w3.org/2000/svg" viewBox="0 0 72.84 72.41">
  <defs>
    <style>
      .cls-1 {
        stroke: #231f20;
        stroke-miterlimit: 10;
        stroke-width: .1px;
      }

      .cls-1, .cls-2 {
        fill: #231f20;
      }
    </style>
  </defs>
  <g id="Layer_1-2" data-name="Layer 1">
    <path class="cls-2" d="m.17.73c.81,1.69.68,3.67.78,5.5.14,2.39.21,4.79.24,7.18.07,4.99.06,9.98.02,14.97-.09,9.89-.37,19.77-.62,29.65-.06,2.47-.12,4.93-.16,7.4-.03,1.85-.22,3.74-.17,5.58.03,1.36.97,1.29,2.12,1.23,1.83-.1,3.65-.08,5.49-.08,9.94.04,19.89.08,29.83.12,11.31.04,22.61.09,33.92.13.47,0,1.56-.7.59-.71-19.51-.08-39.02-.15-58.53-.23l-7.11-.03c-.86,0-1.72-.04-2.58,0-.49.03-1.72.35-2.12.04s-.12-1.66-.09-2.08c.07-.8.06-1.61.07-2.41.03-2.38.08-4.75.14-7.13.23-9.72.52-19.43.64-29.15.07-5.34.09-10.68.03-16.02-.03-2.63-.07-5.27-.21-7.9-.11-2.09.09-4.53-.84-6.46C1.42-.09.01.39.17.73H.17Z"/>
    <path class="cls-2" d="m72.84,71.61c0-18.49,0-36.97,0-55.46V.49c0-.3-1.45-.07-1.45.39,0,18.49,0,36.97,0,55.46,0,5.22,0,10.44,0,15.67,0,.3,1.45.07,1.45-.39h0Z"/>
    <path class="cls-2" d="m.44.97c18.56,0,37.12,0,55.68,0,5.24,0,10.49,0,15.73,0C72.5.97,73.36,0,72.38,0c-18.56,0-37.12,0-55.68,0H.96C.32,0-.54.97.44.97H.44Z"/>
    <path class="cls-2" d="m71.89,63.14h-8.2c-.14,0-.41.05-.48.2s.05.23.2.23h8.2c.14,0,.41-.05.48-.2s-.05-.23-.2-.23h0Z"/>
    <path class="cls-2" d="m63.19,63.48c0,2.82,0,5.63,0,8.45,0,.17.72.05.72-.19,0-2.82,0-5.63,0-8.45,0-.17-.72-.05-.72.19h0Z"/>
    <path class="cls-2" d="m64.17,71.78c1.82-3.36,4.43-6.4,7.95-8.05.45-.21.05-.58-.32-.41-3.67,1.71-6.42,4.87-8.32,8.38-.19.35.54.34.69.07h0Z"/>
    <path class="cls-2" d="m66.33,70.81c1.04-1.88,2.5-3.5,4.24-4.75.12-.09-.16-.07-.23-.03-1.77,1.27-3.25,2.92-4.31,4.82-.03.06.24.04.29-.04h0Z"/>
    <path class="cls-2" d="m68.48,70.64c.36-.87.97-1.62,1.75-2.15.05-.03.07-.1.02-.14s-.15-.01-.21.02c-.82.55-1.46,1.33-1.84,2.24-.06.15.23.13.27.02h0Z"/>
    <ellipse class="cls-1" cx="36.93" cy="39.71" rx="3.34" ry="1.58"/>
    <path class="cls-2" d="m36.59,41.36c.28,1.41.18,2.88-.29,4.23-.13.39.59.37.69.07.5-1.45.62-2.99.32-4.5-.06-.32-.79-.14-.72.19h0Z"/>
    <path class="cls-2" d="m37.17,45.7c-.85-.18-1.69.11-2.44.51-.68.36-1.34.87-2.13.95-.13.01-.38.09-.41.25s.21.18.32.17c.78-.08,1.46-.45,2.13-.84.63-.36,1.33-.8,2.09-.64.17.04.39-.01.51-.14.11-.11.09-.24-.07-.27h0Z"/>
    <path class="cls-2" d="m36.48,45.99c.69-.15,1.4.32,1.95.67s1.15.71,1.85.78c.16.02.38-.05.51-.14.11-.08.1-.14-.04-.15-.75-.07-1.36-.58-1.99-.95-.66-.39-1.38-.64-2.15-.47-.09.02-.41.07-.43.19s.23.08.29.06h0Z"/>
    <path class="cls-2" d="m40.42,47.43c1.77-.15,3.16-1.37,4.38-2.55.11-.11.08-.22-.07-.26-.16-.04-.39.02-.51.14-1.03.99-2.2,2.14-3.7,2.27-.13.01-.39.09-.41.25-.03.16.21.16.31.15h0Z"/>
    <path class="cls-2" d="m28.89,45.55c.36.61.81,1.19,1.42,1.57.67.43,1.45.55,2.22.38.08-.02.36-.11.33-.23s-.33-.05-.4-.04c-.56.12-1.2-.16-1.65-.49-.5-.37-.88-.86-1.19-1.39-.12-.2-.8.07-.72.19h0Z"/>
    <path class="cls-2" d="m33.68,30.78c-.38-.24-.77-.49-1.21-.63-.48-.15-.98-.15-1.46-.02-1.13.28-1.96,1.07-2.91,1.68-.13.09-.17.27-.04.37.15.11.38.05.52-.04.79-.51,1.49-1.19,2.42-1.47.37-.11.74-.13,1.11,0s.69.34,1.02.54c.16.1.38.07.52-.04.11-.09.2-.28.04-.37h0Z"/>
    <path class="cls-2" d="m40.49,31.48c.44-.25.84-.55,1.27-.81.45-.27.89-.37,1.42-.3,1.02.13,1.81.91,2.73,1.33.14.06.33,0,.46-.05.03-.01.33-.15.22-.19-.59-.27-1.11-.65-1.67-.96-.53-.29-1.1-.44-1.71-.43s-1.17.15-1.69.42c-.55.28-1.04.67-1.58.98-.13.07-.08.13.04.15.16.02.38-.06.51-.14h0Z"/>
    <path class="cls-2" d="m20.49,26.94c.35-.14.36-.41.37-.73.01-.34.03-.69.05-1.03.06-1.34.14-2.68.21-4.02l-.7.19c.93,1.31,2.43,2.15,4,2.44.17.03.39,0,.51-.14.1-.11.09-.28-.08-.31-1.49-.27-2.88-1.05-3.76-2.29-.14-.19-.69-.06-.7.19-.07,1.26-.13,2.53-.19,3.79-.02.36-.03.72-.05,1.07,0,.1,0,.2-.01.3,0,.03,0,.05,0,.08,0,.08-.04.13.06.09-.12.05-.28.2-.18.34s.36.09.49.03h0Z"/>
    <path class="cls-2" d="m50.19,23.17c.71.19,1.42-.2,1.8-.79.23-.35.37-.76.54-1.15.2-.47.41-.93.61-1.4l-.7.08c.28,2.44.98,4.81,2.06,7.01.13.27.84.04.72-.19-1.08-2.2-1.78-4.57-2.06-7.01-.03-.27-.63-.08-.7.08-.27.61-.53,1.23-.8,1.84-.17.38-.47,1.26-1.03,1.11-.25-.07-.85.31-.44.42h0Z"/>
    <path class="cls-2" d="m20,30.86c-.65,1.45-1.77,2.56-3.28,3.1-.15.05-.47.28-.22.44.95.61,2.07.63,3.05.07l-.39-.36c-1.18.99-2.09,2.14-2.77,3.52-.1.21.15.3.31.29,1.02-.1,1.97-.35,2.9-.77l-.39-.36c-1.57,1.38-2.73,3.09-3.68,4.95s-2.17,3.97-1.91,6.04,2.15,3.01,3.97,3.5c2.14.58,4.38.48,6.56.25.4-.04.57-.56.07-.51-3.06.32-10.02.61-9.9-4,.05-1.8,1.1-3.64,1.9-5.22.89-1.75,1.98-3.4,3.46-4.71.34-.3-.11-.49-.39-.36-.81.37-1.62.58-2.51.67l.31.29c.63-1.28,1.47-2.37,2.56-3.29.33-.28-.11-.52-.39-.36-.73.42-1.48.38-2.18-.07l-.22.44c1.73-.62,3.09-1.82,3.84-3.51.16-.37-.56-.35-.69-.07h0Z"/>
    <path class="cls-2" d="m54.4,28.87c1.11,1.04,2.34,1.86,3.71,2.5l.31-.25c-.97.28-1.92.38-2.92.32-.07,0-.73.14-.57.28,1.21,1.06,2.48,2.06,3.79,3l.41-.27c-1.26.22-2.52.44-3.78.66-.08.01-.52.12-.41.27,2.34,3,5.26,6.81,4.38,10.9-.48,2.22-2.72,3.15-4.65,3.87-2.1.78-4.29,1.17-6.52,1.24-.2,0-.79.32-.31.31,2.22-.06,4.41-.44,6.51-1.15,1.72-.59,4.02-1.38,5.1-2.95,1.21-1.75.77-4.36.08-6.22-.85-2.33-2.4-4.3-3.91-6.24l-.41.27c1.26-.22,2.52-.44,3.78-.66.04,0,.55-.16.41-.27-1.31-.94-2.57-1.94-3.79-3l-.57.28c1.18.07,2.31-.06,3.45-.39,0,0,.45-.18.31-.25-1.38-.64-2.6-1.47-3.71-2.5-.14-.13-.8.14-.68.25h0Z"/>
  </g>
</svg>